# xmcd
#
# Track frame offsets: 
#        150
#        21936
#        37518
#        51031
#        64934
#        85590
#        98418
#        116260
#        138058
#        153175
#        167653
#        188215
#
# Disc length: 2759 seconds
#
# Revision: 0
# Processed by: cddbd v1.5PL3 Copyright (c) Steve Scherf et al.
# Submitted via: ExactAudioCopy v0.95a4
#
DISCID=7f0ac50c
DTITLE=Zydeco Loco - Voici Le Pamplemousse!
DYEAR=2001
DGENRE=Blues
TTITLE0=Zydeco Cha Cha - Man Smart Woman Smarter
TTITLE1=Pepper In The Pot
TTITLE2=My Creole Gal (My Zydeco Rose)
TTITLE3=Let Me Take You In My Arms Tonight
TTITLE4=Used To Call Me Daddy
TTITLE5=Bosco Stomp
TTITLE6=Ya Ya
TTITLE7=Border Town
TTITLE8=Po' Boy Zydeco
TTITLE9=Loco Zydeco
TTITLE10=C'est Parti Mon Kiki
TTITLE11=Only A Hobo
EXTD=
EXTT0=
EXTT1=
EXTT2=
EXTT3=
EXTT4=
EXTT5=
EXTT6=
EXTT7=
EXTT8=
EXTT9=
EXTT10=
EXTT11=
PLAYORDER=
